<mxfile host="app.diagrams.net" modified="2023-04-08T03:06:41.063Z" agent="Mozilla/5.0 (Windows NT 10.0; Win64; x64; rv:109.0) Gecko/20100101 Firefox/111.0" etag="_g530ZBVFoV_HZpKTNOm" version="21.1.1" type="device">
  <diagram id="C5RBs43oDa-KdzZeNtuy" name="Page-1">
    <mxGraphModel dx="2685" dy="1205" grid="1" gridSize="10" guides="1" tooltips="1" connect="1" arrows="1" fold="1" page="1" pageScale="1" pageWidth="827" pageHeight="1169" math="0" shadow="0">
      <root>
        <mxCell id="WIyWlLk6GJQsqaUBKTNV-0" />
        <mxCell id="WIyWlLk6GJQsqaUBKTNV-1" parent="WIyWlLk6GJQsqaUBKTNV-0" />
        <mxCell id="5I727vghX1C90WXf4kaf-0" value="nodo" style="swimlane;fontStyle=0;childLayout=stackLayout;horizontal=1;startSize=26;fillColor=none;horizontalStack=0;resizeParent=1;resizeParentMax=0;resizeLast=0;collapsible=1;marginBottom=0;whiteSpace=wrap;html=1;" vertex="1" parent="WIyWlLk6GJQsqaUBKTNV-1">
          <mxGeometry x="20" y="69.8" width="140" height="104" as="geometry" />
        </mxCell>
        <mxCell id="5I727vghX1C90WXf4kaf-1" value="+ dato" style="text;strokeColor=none;fillColor=none;align=left;verticalAlign=top;spacingLeft=4;spacingRight=4;overflow=hidden;rotatable=0;points=[[0,0.5],[1,0.5]];portConstraint=eastwest;whiteSpace=wrap;html=1;" vertex="1" parent="5I727vghX1C90WXf4kaf-0">
          <mxGeometry y="26" width="140" height="26" as="geometry" />
        </mxCell>
        <mxCell id="5I727vghX1C90WXf4kaf-2" value="+ siguiente" style="text;strokeColor=none;fillColor=none;align=left;verticalAlign=top;spacingLeft=4;spacingRight=4;overflow=hidden;rotatable=0;points=[[0,0.5],[1,0.5]];portConstraint=eastwest;whiteSpace=wrap;html=1;" vertex="1" parent="5I727vghX1C90WXf4kaf-0">
          <mxGeometry y="52" width="140" height="26" as="geometry" />
        </mxCell>
        <mxCell id="5I727vghX1C90WXf4kaf-3" value="+ anterior" style="text;strokeColor=none;fillColor=none;align=left;verticalAlign=top;spacingLeft=4;spacingRight=4;overflow=hidden;rotatable=0;points=[[0,0.5],[1,0.5]];portConstraint=eastwest;whiteSpace=wrap;html=1;" vertex="1" parent="5I727vghX1C90WXf4kaf-0">
          <mxGeometry y="78" width="140" height="26" as="geometry" />
        </mxCell>
        <mxCell id="5I727vghX1C90WXf4kaf-62" style="edgeStyle=orthogonalEdgeStyle;rounded=0;orthogonalLoop=1;jettySize=auto;html=1;exitX=0.5;exitY=0;exitDx=0;exitDy=0;entryX=0.5;entryY=0;entryDx=0;entryDy=0;" edge="1" parent="WIyWlLk6GJQsqaUBKTNV-1" source="5I727vghX1C90WXf4kaf-4" target="5I727vghX1C90WXf4kaf-0">
          <mxGeometry relative="1" as="geometry" />
        </mxCell>
        <mxCell id="5I727vghX1C90WXf4kaf-4" value="ListaDoble" style="swimlane;fontStyle=1;align=center;verticalAlign=top;childLayout=stackLayout;horizontal=1;startSize=26;horizontalStack=0;resizeParent=1;resizeParentMax=0;resizeLast=0;collapsible=1;marginBottom=0;whiteSpace=wrap;html=1;" vertex="1" parent="WIyWlLk6GJQsqaUBKTNV-1">
          <mxGeometry x="-260" y="309.8" width="180" height="294" as="geometry" />
        </mxCell>
        <mxCell id="5I727vghX1C90WXf4kaf-5" value="+ primero" style="text;strokeColor=none;fillColor=none;align=left;verticalAlign=top;spacingLeft=4;spacingRight=4;overflow=hidden;rotatable=0;points=[[0,0.5],[1,0.5]];portConstraint=eastwest;whiteSpace=wrap;html=1;" vertex="1" parent="5I727vghX1C90WXf4kaf-4">
          <mxGeometry y="26" width="180" height="26" as="geometry" />
        </mxCell>
        <mxCell id="5I727vghX1C90WXf4kaf-9" value="+ ultimo" style="text;strokeColor=none;fillColor=none;align=left;verticalAlign=top;spacingLeft=4;spacingRight=4;overflow=hidden;rotatable=0;points=[[0,0.5],[1,0.5]];portConstraint=eastwest;whiteSpace=wrap;html=1;" vertex="1" parent="5I727vghX1C90WXf4kaf-4">
          <mxGeometry y="52" width="180" height="26" as="geometry" />
        </mxCell>
        <mxCell id="5I727vghX1C90WXf4kaf-8" value="+ contador" style="text;strokeColor=none;fillColor=none;align=left;verticalAlign=top;spacingLeft=4;spacingRight=4;overflow=hidden;rotatable=0;points=[[0,0.5],[1,0.5]];portConstraint=eastwest;whiteSpace=wrap;html=1;" vertex="1" parent="5I727vghX1C90WXf4kaf-4">
          <mxGeometry y="78" width="180" height="22" as="geometry" />
        </mxCell>
        <mxCell id="5I727vghX1C90WXf4kaf-6" value="" style="line;strokeWidth=1;fillColor=none;align=left;verticalAlign=middle;spacingTop=-1;spacingLeft=3;spacingRight=3;rotatable=0;labelPosition=right;points=[];portConstraint=eastwest;strokeColor=inherit;" vertex="1" parent="5I727vghX1C90WXf4kaf-4">
          <mxGeometry y="100" width="180" height="8" as="geometry" />
        </mxCell>
        <mxCell id="5I727vghX1C90WXf4kaf-7" value="&lt;div&gt;+ _vacia(self)&lt;/div&gt;&lt;div&gt;&lt;br&gt;&lt;/div&gt;" style="text;strokeColor=none;fillColor=none;align=left;verticalAlign=top;spacingLeft=4;spacingRight=4;overflow=hidden;rotatable=0;points=[[0,0.5],[1,0.5]];portConstraint=eastwest;whiteSpace=wrap;html=1;" vertex="1" parent="5I727vghX1C90WXf4kaf-4">
          <mxGeometry y="108" width="180" height="26" as="geometry" />
        </mxCell>
        <mxCell id="5I727vghX1C90WXf4kaf-13" value="+ _agregar_final(self, dato)" style="text;strokeColor=none;fillColor=none;align=left;verticalAlign=top;spacingLeft=4;spacingRight=4;overflow=hidden;rotatable=0;points=[[0,0.5],[1,0.5]];portConstraint=eastwest;whiteSpace=wrap;html=1;" vertex="1" parent="5I727vghX1C90WXf4kaf-4">
          <mxGeometry y="134" width="180" height="26" as="geometry" />
        </mxCell>
        <mxCell id="5I727vghX1C90WXf4kaf-14" value="+ _agregar_inicio(self, dato)" style="text;strokeColor=none;fillColor=none;align=left;verticalAlign=top;spacingLeft=4;spacingRight=4;overflow=hidden;rotatable=0;points=[[0,0.5],[1,0.5]];portConstraint=eastwest;whiteSpace=wrap;html=1;" vertex="1" parent="5I727vghX1C90WXf4kaf-4">
          <mxGeometry y="160" width="180" height="30" as="geometry" />
        </mxCell>
        <mxCell id="5I727vghX1C90WXf4kaf-12" value="+ _recorrer_adelante(self)" style="text;strokeColor=none;fillColor=none;align=left;verticalAlign=top;spacingLeft=4;spacingRight=4;overflow=hidden;rotatable=0;points=[[0,0.5],[1,0.5]];portConstraint=eastwest;whiteSpace=wrap;html=1;" vertex="1" parent="5I727vghX1C90WXf4kaf-4">
          <mxGeometry y="190" width="180" height="26" as="geometry" />
        </mxCell>
        <mxCell id="5I727vghX1C90WXf4kaf-15" value="+ _recorrer_atras(self)" style="text;strokeColor=none;fillColor=none;align=left;verticalAlign=top;spacingLeft=4;spacingRight=4;overflow=hidden;rotatable=0;points=[[0,0.5],[1,0.5]];portConstraint=eastwest;whiteSpace=wrap;html=1;" vertex="1" parent="5I727vghX1C90WXf4kaf-4">
          <mxGeometry y="216" width="180" height="26" as="geometry" />
        </mxCell>
        <mxCell id="5I727vghX1C90WXf4kaf-17" value="+ _size(self)" style="text;strokeColor=none;fillColor=none;align=left;verticalAlign=top;spacingLeft=4;spacingRight=4;overflow=hidden;rotatable=0;points=[[0,0.5],[1,0.5]];portConstraint=eastwest;whiteSpace=wrap;html=1;" vertex="1" parent="5I727vghX1C90WXf4kaf-4">
          <mxGeometry y="242" width="180" height="26" as="geometry" />
        </mxCell>
        <mxCell id="5I727vghX1C90WXf4kaf-16" value="+ _limpiar(self)" style="text;strokeColor=none;fillColor=none;align=left;verticalAlign=top;spacingLeft=4;spacingRight=4;overflow=hidden;rotatable=0;points=[[0,0.5],[1,0.5]];portConstraint=eastwest;whiteSpace=wrap;html=1;" vertex="1" parent="5I727vghX1C90WXf4kaf-4">
          <mxGeometry y="268" width="180" height="26" as="geometry" />
        </mxCell>
        <mxCell id="5I727vghX1C90WXf4kaf-66" style="edgeStyle=orthogonalEdgeStyle;rounded=0;orthogonalLoop=1;jettySize=auto;html=1;exitX=0.5;exitY=0;exitDx=0;exitDy=0;entryX=0.5;entryY=0;entryDx=0;entryDy=0;" edge="1" parent="WIyWlLk6GJQsqaUBKTNV-1" source="5I727vghX1C90WXf4kaf-21" target="5I727vghX1C90WXf4kaf-0">
          <mxGeometry relative="1" as="geometry">
            <Array as="points">
              <mxPoint x="90" y="249.8" />
              <mxPoint x="300" y="249.8" />
              <mxPoint x="300" y="49.8" />
              <mxPoint x="90" y="49.8" />
            </Array>
          </mxGeometry>
        </mxCell>
        <mxCell id="5I727vghX1C90WXf4kaf-21" value="ListaSimple" style="swimlane;fontStyle=1;align=center;verticalAlign=top;childLayout=stackLayout;horizontal=1;startSize=26;horizontalStack=0;resizeParent=1;resizeParentMax=0;resizeLast=0;collapsible=1;marginBottom=0;whiteSpace=wrap;html=1;" vertex="1" parent="WIyWlLk6GJQsqaUBKTNV-1">
          <mxGeometry y="309.8" width="180" height="264" as="geometry" />
        </mxCell>
        <mxCell id="5I727vghX1C90WXf4kaf-22" value="+ primero" style="text;strokeColor=none;fillColor=none;align=left;verticalAlign=top;spacingLeft=4;spacingRight=4;overflow=hidden;rotatable=0;points=[[0,0.5],[1,0.5]];portConstraint=eastwest;whiteSpace=wrap;html=1;" vertex="1" parent="5I727vghX1C90WXf4kaf-21">
          <mxGeometry y="26" width="180" height="26" as="geometry" />
        </mxCell>
        <mxCell id="5I727vghX1C90WXf4kaf-23" value="+ ultimo" style="text;strokeColor=none;fillColor=none;align=left;verticalAlign=top;spacingLeft=4;spacingRight=4;overflow=hidden;rotatable=0;points=[[0,0.5],[1,0.5]];portConstraint=eastwest;whiteSpace=wrap;html=1;" vertex="1" parent="5I727vghX1C90WXf4kaf-21">
          <mxGeometry y="52" width="180" height="26" as="geometry" />
        </mxCell>
        <mxCell id="5I727vghX1C90WXf4kaf-24" value="+ contador" style="text;strokeColor=none;fillColor=none;align=left;verticalAlign=top;spacingLeft=4;spacingRight=4;overflow=hidden;rotatable=0;points=[[0,0.5],[1,0.5]];portConstraint=eastwest;whiteSpace=wrap;html=1;" vertex="1" parent="5I727vghX1C90WXf4kaf-21">
          <mxGeometry y="78" width="180" height="22" as="geometry" />
        </mxCell>
        <mxCell id="5I727vghX1C90WXf4kaf-25" value="" style="line;strokeWidth=1;fillColor=none;align=left;verticalAlign=middle;spacingTop=-1;spacingLeft=3;spacingRight=3;rotatable=0;labelPosition=right;points=[];portConstraint=eastwest;strokeColor=inherit;" vertex="1" parent="5I727vghX1C90WXf4kaf-21">
          <mxGeometry y="100" width="180" height="8" as="geometry" />
        </mxCell>
        <mxCell id="5I727vghX1C90WXf4kaf-26" value="&lt;div&gt;+ _vacia(self)&lt;/div&gt;&lt;div&gt;&lt;br&gt;&lt;/div&gt;" style="text;strokeColor=none;fillColor=none;align=left;verticalAlign=top;spacingLeft=4;spacingRight=4;overflow=hidden;rotatable=0;points=[[0,0.5],[1,0.5]];portConstraint=eastwest;whiteSpace=wrap;html=1;" vertex="1" parent="5I727vghX1C90WXf4kaf-21">
          <mxGeometry y="108" width="180" height="26" as="geometry" />
        </mxCell>
        <mxCell id="5I727vghX1C90WXf4kaf-27" value="+ _agregar_final(self, dato)" style="text;strokeColor=none;fillColor=none;align=left;verticalAlign=top;spacingLeft=4;spacingRight=4;overflow=hidden;rotatable=0;points=[[0,0.5],[1,0.5]];portConstraint=eastwest;whiteSpace=wrap;html=1;" vertex="1" parent="5I727vghX1C90WXf4kaf-21">
          <mxGeometry y="134" width="180" height="26" as="geometry" />
        </mxCell>
        <mxCell id="5I727vghX1C90WXf4kaf-29" value="+ _recorrer(self)" style="text;strokeColor=none;fillColor=none;align=left;verticalAlign=top;spacingLeft=4;spacingRight=4;overflow=hidden;rotatable=0;points=[[0,0.5],[1,0.5]];portConstraint=eastwest;whiteSpace=wrap;html=1;" vertex="1" parent="5I727vghX1C90WXf4kaf-21">
          <mxGeometry y="160" width="180" height="26" as="geometry" />
        </mxCell>
        <mxCell id="5I727vghX1C90WXf4kaf-31" value="+ _size(self)" style="text;strokeColor=none;fillColor=none;align=left;verticalAlign=top;spacingLeft=4;spacingRight=4;overflow=hidden;rotatable=0;points=[[0,0.5],[1,0.5]];portConstraint=eastwest;whiteSpace=wrap;html=1;" vertex="1" parent="5I727vghX1C90WXf4kaf-21">
          <mxGeometry y="186" width="180" height="26" as="geometry" />
        </mxCell>
        <mxCell id="5I727vghX1C90WXf4kaf-32" value="+ _limpiar(self)" style="text;strokeColor=none;fillColor=none;align=left;verticalAlign=top;spacingLeft=4;spacingRight=4;overflow=hidden;rotatable=0;points=[[0,0.5],[1,0.5]];portConstraint=eastwest;whiteSpace=wrap;html=1;" vertex="1" parent="5I727vghX1C90WXf4kaf-21">
          <mxGeometry y="212" width="180" height="26" as="geometry" />
        </mxCell>
        <mxCell id="5I727vghX1C90WXf4kaf-33" value="+ bubble_sort(self)" style="text;strokeColor=none;fillColor=none;align=left;verticalAlign=top;spacingLeft=4;spacingRight=4;overflow=hidden;rotatable=0;points=[[0,0.5],[1,0.5]];portConstraint=eastwest;whiteSpace=wrap;html=1;" vertex="1" parent="5I727vghX1C90WXf4kaf-21">
          <mxGeometry y="238" width="180" height="26" as="geometry" />
        </mxCell>
        <mxCell id="5I727vghX1C90WXf4kaf-64" style="edgeStyle=orthogonalEdgeStyle;rounded=0;orthogonalLoop=1;jettySize=auto;html=1;exitX=0.5;exitY=0;exitDx=0;exitDy=0;entryX=0.5;entryY=0;entryDx=0;entryDy=0;" edge="1" parent="WIyWlLk6GJQsqaUBKTNV-1" source="5I727vghX1C90WXf4kaf-36" target="5I727vghX1C90WXf4kaf-0">
          <mxGeometry relative="1" as="geometry" />
        </mxCell>
        <mxCell id="5I727vghX1C90WXf4kaf-36" value="cola" style="swimlane;fontStyle=1;align=center;verticalAlign=top;childLayout=stackLayout;horizontal=1;startSize=26;horizontalStack=0;resizeParent=1;resizeParentMax=0;resizeLast=0;collapsible=1;marginBottom=0;whiteSpace=wrap;html=1;" vertex="1" parent="WIyWlLk6GJQsqaUBKTNV-1">
          <mxGeometry x="260" y="309.8" width="180" height="264" as="geometry" />
        </mxCell>
        <mxCell id="5I727vghX1C90WXf4kaf-37" value="+ primero" style="text;strokeColor=none;fillColor=none;align=left;verticalAlign=top;spacingLeft=4;spacingRight=4;overflow=hidden;rotatable=0;points=[[0,0.5],[1,0.5]];portConstraint=eastwest;whiteSpace=wrap;html=1;" vertex="1" parent="5I727vghX1C90WXf4kaf-36">
          <mxGeometry y="26" width="180" height="26" as="geometry" />
        </mxCell>
        <mxCell id="5I727vghX1C90WXf4kaf-38" value="+ ultimo" style="text;strokeColor=none;fillColor=none;align=left;verticalAlign=top;spacingLeft=4;spacingRight=4;overflow=hidden;rotatable=0;points=[[0,0.5],[1,0.5]];portConstraint=eastwest;whiteSpace=wrap;html=1;" vertex="1" parent="5I727vghX1C90WXf4kaf-36">
          <mxGeometry y="52" width="180" height="26" as="geometry" />
        </mxCell>
        <mxCell id="5I727vghX1C90WXf4kaf-39" value="+ Lista" style="text;strokeColor=none;fillColor=none;align=left;verticalAlign=top;spacingLeft=4;spacingRight=4;overflow=hidden;rotatable=0;points=[[0,0.5],[1,0.5]];portConstraint=eastwest;whiteSpace=wrap;html=1;" vertex="1" parent="5I727vghX1C90WXf4kaf-36">
          <mxGeometry y="78" width="180" height="22" as="geometry" />
        </mxCell>
        <mxCell id="5I727vghX1C90WXf4kaf-40" value="" style="line;strokeWidth=1;fillColor=none;align=left;verticalAlign=middle;spacingTop=-1;spacingLeft=3;spacingRight=3;rotatable=0;labelPosition=right;points=[];portConstraint=eastwest;strokeColor=inherit;" vertex="1" parent="5I727vghX1C90WXf4kaf-36">
          <mxGeometry y="100" width="180" height="8" as="geometry" />
        </mxCell>
        <mxCell id="5I727vghX1C90WXf4kaf-41" value="+ _getPrimero(self)" style="text;strokeColor=none;fillColor=none;align=left;verticalAlign=top;spacingLeft=4;spacingRight=4;overflow=hidden;rotatable=0;points=[[0,0.5],[1,0.5]];portConstraint=eastwest;whiteSpace=wrap;html=1;" vertex="1" parent="5I727vghX1C90WXf4kaf-36">
          <mxGeometry y="108" width="180" height="26" as="geometry" />
        </mxCell>
        <mxCell id="5I727vghX1C90WXf4kaf-42" value="+ _getUltimo(self)" style="text;strokeColor=none;fillColor=none;align=left;verticalAlign=top;spacingLeft=4;spacingRight=4;overflow=hidden;rotatable=0;points=[[0,0.5],[1,0.5]];portConstraint=eastwest;whiteSpace=wrap;html=1;" vertex="1" parent="5I727vghX1C90WXf4kaf-36">
          <mxGeometry y="134" width="180" height="26" as="geometry" />
        </mxCell>
        <mxCell id="5I727vghX1C90WXf4kaf-43" value="+ _agregarCola(self, dato)" style="text;strokeColor=none;fillColor=none;align=left;verticalAlign=top;spacingLeft=4;spacingRight=4;overflow=hidden;rotatable=0;points=[[0,0.5],[1,0.5]];portConstraint=eastwest;whiteSpace=wrap;html=1;" vertex="1" parent="5I727vghX1C90WXf4kaf-36">
          <mxGeometry y="160" width="180" height="26" as="geometry" />
        </mxCell>
        <mxCell id="5I727vghX1C90WXf4kaf-44" value="+ _borrarCola(self)" style="text;strokeColor=none;fillColor=none;align=left;verticalAlign=top;spacingLeft=4;spacingRight=4;overflow=hidden;rotatable=0;points=[[0,0.5],[1,0.5]];portConstraint=eastwest;whiteSpace=wrap;html=1;" vertex="1" parent="5I727vghX1C90WXf4kaf-36">
          <mxGeometry y="186" width="180" height="26" as="geometry" />
        </mxCell>
        <mxCell id="5I727vghX1C90WXf4kaf-45" value="+ _size(self)" style="text;strokeColor=none;fillColor=none;align=left;verticalAlign=top;spacingLeft=4;spacingRight=4;overflow=hidden;rotatable=0;points=[[0,0.5],[1,0.5]];portConstraint=eastwest;whiteSpace=wrap;html=1;" vertex="1" parent="5I727vghX1C90WXf4kaf-36">
          <mxGeometry y="212" width="180" height="26" as="geometry" />
        </mxCell>
        <mxCell id="5I727vghX1C90WXf4kaf-46" value="+ _recorrer(self)" style="text;strokeColor=none;fillColor=none;align=left;verticalAlign=top;spacingLeft=4;spacingRight=4;overflow=hidden;rotatable=0;points=[[0,0.5],[1,0.5]];portConstraint=eastwest;whiteSpace=wrap;html=1;" vertex="1" parent="5I727vghX1C90WXf4kaf-36">
          <mxGeometry y="238" width="180" height="26" as="geometry" />
        </mxCell>
        <mxCell id="5I727vghX1C90WXf4kaf-61" style="edgeStyle=orthogonalEdgeStyle;rounded=0;orthogonalLoop=1;jettySize=auto;html=1;exitX=0.5;exitY=0;exitDx=0;exitDy=0;" edge="1" parent="WIyWlLk6GJQsqaUBKTNV-1" source="5I727vghX1C90WXf4kaf-51">
          <mxGeometry relative="1" as="geometry">
            <mxPoint x="90" y="579.8" as="targetPoint" />
          </mxGeometry>
        </mxCell>
        <mxCell id="5I727vghX1C90WXf4kaf-51" value="dataCompuestos" style="swimlane;fontStyle=0;childLayout=stackLayout;horizontal=1;startSize=26;fillColor=none;horizontalStack=0;resizeParent=1;resizeParentMax=0;resizeLast=0;collapsible=1;marginBottom=0;whiteSpace=wrap;html=1;" vertex="1" parent="WIyWlLk6GJQsqaUBKTNV-1">
          <mxGeometry y="719.8" width="180" height="104" as="geometry" />
        </mxCell>
        <mxCell id="5I727vghX1C90WXf4kaf-52" value="+ nombreCompuesto: string" style="text;strokeColor=none;fillColor=none;align=left;verticalAlign=top;spacingLeft=4;spacingRight=4;overflow=hidden;rotatable=0;points=[[0,0.5],[1,0.5]];portConstraint=eastwest;whiteSpace=wrap;html=1;" vertex="1" parent="5I727vghX1C90WXf4kaf-51">
          <mxGeometry y="26" width="180" height="26" as="geometry" />
        </mxCell>
        <mxCell id="5I727vghX1C90WXf4kaf-53" value="+ numeroCmpuesto: int" style="text;strokeColor=none;fillColor=none;align=left;verticalAlign=top;spacingLeft=4;spacingRight=4;overflow=hidden;rotatable=0;points=[[0,0.5],[1,0.5]];portConstraint=eastwest;whiteSpace=wrap;html=1;" vertex="1" parent="5I727vghX1C90WXf4kaf-51">
          <mxGeometry y="52" width="180" height="26" as="geometry" />
        </mxCell>
        <mxCell id="5I727vghX1C90WXf4kaf-54" value="+ listaCompuesto: class" style="text;strokeColor=none;fillColor=none;align=left;verticalAlign=top;spacingLeft=4;spacingRight=4;overflow=hidden;rotatable=0;points=[[0,0.5],[1,0.5]];portConstraint=eastwest;whiteSpace=wrap;html=1;" vertex="1" parent="5I727vghX1C90WXf4kaf-51">
          <mxGeometry y="78" width="180" height="26" as="geometry" />
        </mxCell>
        <mxCell id="5I727vghX1C90WXf4kaf-68" style="edgeStyle=orthogonalEdgeStyle;rounded=0;orthogonalLoop=1;jettySize=auto;html=1;exitX=0.5;exitY=0;exitDx=0;exitDy=0;entryX=0;entryY=0.5;entryDx=0;entryDy=0;" edge="1" parent="WIyWlLk6GJQsqaUBKTNV-1" source="5I727vghX1C90WXf4kaf-55" target="5I727vghX1C90WXf4kaf-54">
          <mxGeometry relative="1" as="geometry" />
        </mxCell>
        <mxCell id="5I727vghX1C90WXf4kaf-126" style="edgeStyle=orthogonalEdgeStyle;rounded=0;orthogonalLoop=1;jettySize=auto;html=1;exitX=0;exitY=0;exitDx=0;exitDy=0;" edge="1" parent="WIyWlLk6GJQsqaUBKTNV-1" source="5I727vghX1C90WXf4kaf-55">
          <mxGeometry relative="1" as="geometry">
            <mxPoint x="90" y="580" as="targetPoint" />
            <Array as="points">
              <mxPoint x="-60" y="860" />
              <mxPoint x="-60" y="690" />
              <mxPoint x="90" y="690" />
            </Array>
          </mxGeometry>
        </mxCell>
        <mxCell id="5I727vghX1C90WXf4kaf-55" value="dataCompuestoElemento" style="swimlane;fontStyle=0;childLayout=stackLayout;horizontal=1;startSize=26;fillColor=none;horizontalStack=0;resizeParent=1;resizeParentMax=0;resizeLast=0;collapsible=1;marginBottom=0;whiteSpace=wrap;html=1;" vertex="1" parent="WIyWlLk6GJQsqaUBKTNV-1">
          <mxGeometry y="859.8" width="180" height="78" as="geometry" />
        </mxCell>
        <mxCell id="5I727vghX1C90WXf4kaf-56" value="+ elemento" style="text;strokeColor=none;fillColor=none;align=left;verticalAlign=top;spacingLeft=4;spacingRight=4;overflow=hidden;rotatable=0;points=[[0,0.5],[1,0.5]];portConstraint=eastwest;whiteSpace=wrap;html=1;" vertex="1" parent="5I727vghX1C90WXf4kaf-55">
          <mxGeometry y="26" width="180" height="26" as="geometry" />
        </mxCell>
        <mxCell id="5I727vghX1C90WXf4kaf-57" value="+ numeroElemento" style="text;strokeColor=none;fillColor=none;align=left;verticalAlign=top;spacingLeft=4;spacingRight=4;overflow=hidden;rotatable=0;points=[[0,0.5],[1,0.5]];portConstraint=eastwest;whiteSpace=wrap;html=1;" vertex="1" parent="5I727vghX1C90WXf4kaf-55">
          <mxGeometry y="52" width="180" height="26" as="geometry" />
        </mxCell>
        <mxCell id="5I727vghX1C90WXf4kaf-79" style="edgeStyle=orthogonalEdgeStyle;rounded=0;orthogonalLoop=1;jettySize=auto;html=1;exitX=0.5;exitY=0;exitDx=0;exitDy=0;" edge="1" parent="WIyWlLk6GJQsqaUBKTNV-1" source="5I727vghX1C90WXf4kaf-73">
          <mxGeometry relative="1" as="geometry">
            <mxPoint x="90" y="580" as="targetPoint" />
          </mxGeometry>
        </mxCell>
        <mxCell id="5I727vghX1C90WXf4kaf-73" value="dataMaquina" style="swimlane;fontStyle=0;childLayout=stackLayout;horizontal=1;startSize=26;fillColor=none;horizontalStack=0;resizeParent=1;resizeParentMax=0;resizeLast=0;collapsible=1;marginBottom=0;whiteSpace=wrap;html=1;" vertex="1" parent="WIyWlLk6GJQsqaUBKTNV-1">
          <mxGeometry x="-250" y="719.8" width="170" height="158" as="geometry" />
        </mxCell>
        <mxCell id="5I727vghX1C90WXf4kaf-74" value="+ nombreMaquina: string" style="text;strokeColor=none;fillColor=none;align=left;verticalAlign=top;spacingLeft=4;spacingRight=4;overflow=hidden;rotatable=0;points=[[0,0.5],[1,0.5]];portConstraint=eastwest;whiteSpace=wrap;html=1;" vertex="1" parent="5I727vghX1C90WXf4kaf-73">
          <mxGeometry y="26" width="170" height="26" as="geometry" />
        </mxCell>
        <mxCell id="5I727vghX1C90WXf4kaf-75" value="+ numerodePines: int" style="text;strokeColor=none;fillColor=none;align=left;verticalAlign=top;spacingLeft=4;spacingRight=4;overflow=hidden;rotatable=0;points=[[0,0.5],[1,0.5]];portConstraint=eastwest;whiteSpace=wrap;html=1;" vertex="1" parent="5I727vghX1C90WXf4kaf-73">
          <mxGeometry y="52" width="170" height="28" as="geometry" />
        </mxCell>
        <mxCell id="5I727vghX1C90WXf4kaf-76" value="+ numeroDeElementos: int" style="text;strokeColor=none;fillColor=none;align=left;verticalAlign=top;spacingLeft=4;spacingRight=4;overflow=hidden;rotatable=0;points=[[0,0.5],[1,0.5]];portConstraint=eastwest;whiteSpace=wrap;html=1;" vertex="1" parent="5I727vghX1C90WXf4kaf-73">
          <mxGeometry y="80" width="170" height="26" as="geometry" />
        </mxCell>
        <mxCell id="5I727vghX1C90WXf4kaf-77" value="+ numerodeMaquina: int" style="text;strokeColor=none;fillColor=none;align=left;verticalAlign=top;spacingLeft=4;spacingRight=4;overflow=hidden;rotatable=0;points=[[0,0.5],[1,0.5]];portConstraint=eastwest;whiteSpace=wrap;html=1;" vertex="1" parent="5I727vghX1C90WXf4kaf-73">
          <mxGeometry y="106" width="170" height="26" as="geometry" />
        </mxCell>
        <mxCell id="5I727vghX1C90WXf4kaf-78" value="+ listaPines: class" style="text;strokeColor=none;fillColor=none;align=left;verticalAlign=top;spacingLeft=4;spacingRight=4;overflow=hidden;rotatable=0;points=[[0,0.5],[1,0.5]];portConstraint=eastwest;whiteSpace=wrap;html=1;" vertex="1" parent="5I727vghX1C90WXf4kaf-73">
          <mxGeometry y="132" width="170" height="26" as="geometry" />
        </mxCell>
        <mxCell id="5I727vghX1C90WXf4kaf-84" style="edgeStyle=orthogonalEdgeStyle;rounded=0;orthogonalLoop=1;jettySize=auto;html=1;exitX=0.5;exitY=0;exitDx=0;exitDy=0;entryX=0;entryY=0.5;entryDx=0;entryDy=0;" edge="1" parent="WIyWlLk6GJQsqaUBKTNV-1" source="5I727vghX1C90WXf4kaf-80" target="5I727vghX1C90WXf4kaf-78">
          <mxGeometry relative="1" as="geometry" />
        </mxCell>
        <mxCell id="5I727vghX1C90WXf4kaf-127" style="edgeStyle=orthogonalEdgeStyle;rounded=0;orthogonalLoop=1;jettySize=auto;html=1;exitX=0.5;exitY=0;exitDx=0;exitDy=0;" edge="1" parent="WIyWlLk6GJQsqaUBKTNV-1" source="5I727vghX1C90WXf4kaf-80">
          <mxGeometry relative="1" as="geometry">
            <mxPoint x="90" y="580" as="targetPoint" />
            <Array as="points">
              <mxPoint x="-60" y="920" />
              <mxPoint x="-60" y="690" />
              <mxPoint x="90" y="690" />
            </Array>
          </mxGeometry>
        </mxCell>
        <mxCell id="5I727vghX1C90WXf4kaf-80" value="dataPin" style="swimlane;fontStyle=0;childLayout=stackLayout;horizontal=1;startSize=26;fillColor=none;horizontalStack=0;resizeParent=1;resizeParentMax=0;resizeLast=0;collapsible=1;marginBottom=0;whiteSpace=wrap;html=1;" vertex="1" parent="WIyWlLk6GJQsqaUBKTNV-1">
          <mxGeometry x="-235" y="920" width="140" height="78" as="geometry" />
        </mxCell>
        <mxCell id="5I727vghX1C90WXf4kaf-81" value="+ listaPin: class" style="text;strokeColor=none;fillColor=none;align=left;verticalAlign=top;spacingLeft=4;spacingRight=4;overflow=hidden;rotatable=0;points=[[0,0.5],[1,0.5]];portConstraint=eastwest;whiteSpace=wrap;html=1;" vertex="1" parent="5I727vghX1C90WXf4kaf-80">
          <mxGeometry y="26" width="140" height="26" as="geometry" />
        </mxCell>
        <mxCell id="5I727vghX1C90WXf4kaf-82" value="+ contadorPin: int" style="text;strokeColor=none;fillColor=none;align=left;verticalAlign=top;spacingLeft=4;spacingRight=4;overflow=hidden;rotatable=0;points=[[0,0.5],[1,0.5]];portConstraint=eastwest;whiteSpace=wrap;html=1;" vertex="1" parent="5I727vghX1C90WXf4kaf-80">
          <mxGeometry y="52" width="140" height="26" as="geometry" />
        </mxCell>
        <mxCell id="5I727vghX1C90WXf4kaf-93" style="edgeStyle=orthogonalEdgeStyle;rounded=0;orthogonalLoop=1;jettySize=auto;html=1;exitX=0.5;exitY=0;exitDx=0;exitDy=0;entryX=0;entryY=0.5;entryDx=0;entryDy=0;" edge="1" parent="WIyWlLk6GJQsqaUBKTNV-1" source="5I727vghX1C90WXf4kaf-85" target="5I727vghX1C90WXf4kaf-81">
          <mxGeometry relative="1" as="geometry">
            <Array as="points">
              <mxPoint x="-442" y="900" />
              <mxPoint x="-330" y="900" />
              <mxPoint x="-330" y="959" />
            </Array>
          </mxGeometry>
        </mxCell>
        <mxCell id="5I727vghX1C90WXf4kaf-123" style="edgeStyle=orthogonalEdgeStyle;rounded=0;orthogonalLoop=1;jettySize=auto;html=1;exitX=0.5;exitY=0;exitDx=0;exitDy=0;entryX=0.44;entryY=1.014;entryDx=0;entryDy=0;entryPerimeter=0;" edge="1" parent="WIyWlLk6GJQsqaUBKTNV-1" source="5I727vghX1C90WXf4kaf-85" target="5I727vghX1C90WXf4kaf-16">
          <mxGeometry relative="1" as="geometry">
            <mxPoint x="-179.99999999999955" y="620" as="targetPoint" />
            <Array as="points">
              <mxPoint x="-442" y="670" />
              <mxPoint x="-181" y="670" />
            </Array>
          </mxGeometry>
        </mxCell>
        <mxCell id="5I727vghX1C90WXf4kaf-85" value="dataElementoPin" style="swimlane;fontStyle=0;childLayout=stackLayout;horizontal=1;startSize=26;fillColor=none;horizontalStack=0;resizeParent=1;resizeParentMax=0;resizeLast=0;collapsible=1;marginBottom=0;whiteSpace=wrap;html=1;" vertex="1" parent="WIyWlLk6GJQsqaUBKTNV-1">
          <mxGeometry x="-530" y="920" width="175" height="78" as="geometry" />
        </mxCell>
        <mxCell id="5I727vghX1C90WXf4kaf-86" value="+ elementoPin: string" style="text;strokeColor=none;fillColor=none;align=left;verticalAlign=top;spacingLeft=4;spacingRight=4;overflow=hidden;rotatable=0;points=[[0,0.5],[1,0.5]];portConstraint=eastwest;whiteSpace=wrap;html=1;" vertex="1" parent="5I727vghX1C90WXf4kaf-85">
          <mxGeometry y="26" width="175" height="26" as="geometry" />
        </mxCell>
        <mxCell id="5I727vghX1C90WXf4kaf-87" value="+ contadorElemento: int" style="text;strokeColor=none;fillColor=none;align=left;verticalAlign=top;spacingLeft=4;spacingRight=4;overflow=hidden;rotatable=0;points=[[0,0.5],[1,0.5]];portConstraint=eastwest;whiteSpace=wrap;html=1;" vertex="1" parent="5I727vghX1C90WXf4kaf-85">
          <mxGeometry y="52" width="175" height="26" as="geometry" />
        </mxCell>
        <mxCell id="5I727vghX1C90WXf4kaf-99" style="edgeStyle=orthogonalEdgeStyle;rounded=0;orthogonalLoop=1;jettySize=auto;html=1;exitX=0.5;exitY=0;exitDx=0;exitDy=0;" edge="1" parent="WIyWlLk6GJQsqaUBKTNV-1" source="5I727vghX1C90WXf4kaf-94">
          <mxGeometry relative="1" as="geometry">
            <mxPoint x="90" y="580" as="targetPoint" />
            <Array as="points">
              <mxPoint x="320" y="650" />
              <mxPoint x="90" y="650" />
            </Array>
          </mxGeometry>
        </mxCell>
        <mxCell id="5I727vghX1C90WXf4kaf-94" value="dataElementoGeneral" style="swimlane;fontStyle=0;childLayout=stackLayout;horizontal=1;startSize=26;fillColor=none;horizontalStack=0;resizeParent=1;resizeParentMax=0;resizeLast=0;collapsible=1;marginBottom=0;whiteSpace=wrap;html=1;" vertex="1" parent="WIyWlLk6GJQsqaUBKTNV-1">
          <mxGeometry x="240" y="720" width="160" height="130" as="geometry" />
        </mxCell>
        <mxCell id="5I727vghX1C90WXf4kaf-95" value="+ contador: int" style="text;strokeColor=none;fillColor=none;align=left;verticalAlign=top;spacingLeft=4;spacingRight=4;overflow=hidden;rotatable=0;points=[[0,0.5],[1,0.5]];portConstraint=eastwest;whiteSpace=wrap;html=1;" vertex="1" parent="5I727vghX1C90WXf4kaf-94">
          <mxGeometry y="26" width="160" height="26" as="geometry" />
        </mxCell>
        <mxCell id="5I727vghX1C90WXf4kaf-96" value="+ numeroAtomico: int" style="text;strokeColor=none;fillColor=none;align=left;verticalAlign=top;spacingLeft=4;spacingRight=4;overflow=hidden;rotatable=0;points=[[0,0.5],[1,0.5]];portConstraint=eastwest;whiteSpace=wrap;html=1;" vertex="1" parent="5I727vghX1C90WXf4kaf-94">
          <mxGeometry y="52" width="160" height="26" as="geometry" />
        </mxCell>
        <mxCell id="5I727vghX1C90WXf4kaf-97" value="+ simbolo: string" style="text;strokeColor=none;fillColor=none;align=left;verticalAlign=top;spacingLeft=4;spacingRight=4;overflow=hidden;rotatable=0;points=[[0,0.5],[1,0.5]];portConstraint=eastwest;whiteSpace=wrap;html=1;" vertex="1" parent="5I727vghX1C90WXf4kaf-94">
          <mxGeometry y="78" width="160" height="26" as="geometry" />
        </mxCell>
        <mxCell id="5I727vghX1C90WXf4kaf-98" value="+ nombreElemento: string" style="text;strokeColor=none;fillColor=none;align=left;verticalAlign=top;spacingLeft=4;spacingRight=4;overflow=hidden;rotatable=0;points=[[0,0.5],[1,0.5]];portConstraint=eastwest;whiteSpace=wrap;html=1;" vertex="1" parent="5I727vghX1C90WXf4kaf-94">
          <mxGeometry y="104" width="160" height="26" as="geometry" />
        </mxCell>
        <mxCell id="5I727vghX1C90WXf4kaf-115" style="edgeStyle=orthogonalEdgeStyle;rounded=0;orthogonalLoop=1;jettySize=auto;html=1;exitX=0.5;exitY=0;exitDx=0;exitDy=0;" edge="1" parent="WIyWlLk6GJQsqaUBKTNV-1" source="5I727vghX1C90WXf4kaf-104">
          <mxGeometry relative="1" as="geometry">
            <mxPoint x="90" y="580" as="targetPoint" />
            <Array as="points">
              <mxPoint x="290" y="880" />
              <mxPoint x="210" y="880" />
              <mxPoint x="210" y="690" />
              <mxPoint x="90" y="690" />
            </Array>
          </mxGeometry>
        </mxCell>
        <mxCell id="5I727vghX1C90WXf4kaf-104" value="estadoosActuales" style="swimlane;fontStyle=1;align=center;verticalAlign=top;childLayout=stackLayout;horizontal=1;startSize=26;horizontalStack=0;resizeParent=1;resizeParentMax=0;resizeLast=0;collapsible=1;marginBottom=0;whiteSpace=wrap;html=1;" vertex="1" parent="WIyWlLk6GJQsqaUBKTNV-1">
          <mxGeometry x="210" y="910" width="160" height="168" as="geometry" />
        </mxCell>
        <mxCell id="5I727vghX1C90WXf4kaf-101" value="+ pin: int" style="text;strokeColor=none;fillColor=none;align=left;verticalAlign=top;spacingLeft=4;spacingRight=4;overflow=hidden;rotatable=0;points=[[0,0.5],[1,0.5]];portConstraint=eastwest;whiteSpace=wrap;html=1;" vertex="1" parent="5I727vghX1C90WXf4kaf-104">
          <mxGeometry y="26" width="160" height="26" as="geometry" />
        </mxCell>
        <mxCell id="5I727vghX1C90WXf4kaf-102" value="+ posicion: int" style="text;strokeColor=none;fillColor=none;align=left;verticalAlign=top;spacingLeft=4;spacingRight=4;overflow=hidden;rotatable=0;points=[[0,0.5],[1,0.5]];portConstraint=eastwest;whiteSpace=wrap;html=1;" vertex="1" parent="5I727vghX1C90WXf4kaf-104">
          <mxGeometry y="52" width="160" height="26" as="geometry" />
        </mxCell>
        <mxCell id="5I727vghX1C90WXf4kaf-103" value="+ EnUso: boolean" style="text;strokeColor=none;fillColor=none;align=left;verticalAlign=top;spacingLeft=4;spacingRight=4;overflow=hidden;rotatable=0;points=[[0,0.5],[1,0.5]];portConstraint=eastwest;whiteSpace=wrap;html=1;" vertex="1" parent="5I727vghX1C90WXf4kaf-104">
          <mxGeometry y="78" width="160" height="26" as="geometry" />
        </mxCell>
        <mxCell id="5I727vghX1C90WXf4kaf-106" value="" style="line;strokeWidth=1;fillColor=none;align=left;verticalAlign=middle;spacingTop=-1;spacingLeft=3;spacingRight=3;rotatable=0;labelPosition=right;points=[];portConstraint=eastwest;strokeColor=inherit;" vertex="1" parent="5I727vghX1C90WXf4kaf-104">
          <mxGeometry y="104" width="160" height="8" as="geometry" />
        </mxCell>
        <mxCell id="5I727vghX1C90WXf4kaf-107" value="+ set_EnUso(self, estado)" style="text;strokeColor=none;fillColor=none;align=left;verticalAlign=top;spacingLeft=4;spacingRight=4;overflow=hidden;rotatable=0;points=[[0,0.5],[1,0.5]];portConstraint=eastwest;whiteSpace=wrap;html=1;" vertex="1" parent="5I727vghX1C90WXf4kaf-104">
          <mxGeometry y="112" width="160" height="28" as="geometry" />
        </mxCell>
        <mxCell id="5I727vghX1C90WXf4kaf-114" value="+ set_posicion(self, nuevo)" style="text;strokeColor=none;fillColor=none;align=left;verticalAlign=top;spacingLeft=4;spacingRight=4;overflow=hidden;rotatable=0;points=[[0,0.5],[1,0.5]];portConstraint=eastwest;whiteSpace=wrap;html=1;" vertex="1" parent="5I727vghX1C90WXf4kaf-104">
          <mxGeometry y="140" width="160" height="28" as="geometry" />
        </mxCell>
        <mxCell id="5I727vghX1C90WXf4kaf-121" style="edgeStyle=orthogonalEdgeStyle;rounded=0;orthogonalLoop=1;jettySize=auto;html=1;exitX=0.5;exitY=0;exitDx=0;exitDy=0;" edge="1" parent="WIyWlLk6GJQsqaUBKTNV-1" source="5I727vghX1C90WXf4kaf-116">
          <mxGeometry relative="1" as="geometry">
            <mxPoint x="330" y="582" as="targetPoint" />
            <Array as="points">
              <mxPoint x="630" y="620" />
              <mxPoint x="330" y="620" />
            </Array>
          </mxGeometry>
        </mxCell>
        <mxCell id="5I727vghX1C90WXf4kaf-116" value="ElementosEncontrados" style="swimlane;fontStyle=0;childLayout=stackLayout;horizontal=1;startSize=26;fillColor=none;horizontalStack=0;resizeParent=1;resizeParentMax=0;resizeLast=0;collapsible=1;marginBottom=0;whiteSpace=wrap;html=1;" vertex="1" parent="WIyWlLk6GJQsqaUBKTNV-1">
          <mxGeometry x="540" y="719.8" width="180" height="130" as="geometry" />
        </mxCell>
        <mxCell id="5I727vghX1C90WXf4kaf-117" value="+ numeroMaquina: int" style="text;strokeColor=none;fillColor=none;align=left;verticalAlign=top;spacingLeft=4;spacingRight=4;overflow=hidden;rotatable=0;points=[[0,0.5],[1,0.5]];portConstraint=eastwest;whiteSpace=wrap;html=1;" vertex="1" parent="5I727vghX1C90WXf4kaf-116">
          <mxGeometry y="26" width="180" height="26" as="geometry" />
        </mxCell>
        <mxCell id="5I727vghX1C90WXf4kaf-118" value="+ numeroPine: int" style="text;strokeColor=none;fillColor=none;align=left;verticalAlign=top;spacingLeft=4;spacingRight=4;overflow=hidden;rotatable=0;points=[[0,0.5],[1,0.5]];portConstraint=eastwest;whiteSpace=wrap;html=1;" vertex="1" parent="5I727vghX1C90WXf4kaf-116">
          <mxGeometry y="52" width="180" height="26" as="geometry" />
        </mxCell>
        <mxCell id="5I727vghX1C90WXf4kaf-119" value="+ contadorElemento: int" style="text;strokeColor=none;fillColor=none;align=left;verticalAlign=top;spacingLeft=4;spacingRight=4;overflow=hidden;rotatable=0;points=[[0,0.5],[1,0.5]];portConstraint=eastwest;whiteSpace=wrap;html=1;" vertex="1" parent="5I727vghX1C90WXf4kaf-116">
          <mxGeometry y="78" width="180" height="26" as="geometry" />
        </mxCell>
        <mxCell id="5I727vghX1C90WXf4kaf-120" value="+ elementoEncontrado: string" style="text;strokeColor=none;fillColor=none;align=left;verticalAlign=top;spacingLeft=4;spacingRight=4;overflow=hidden;rotatable=0;points=[[0,0.5],[1,0.5]];portConstraint=eastwest;whiteSpace=wrap;html=1;" vertex="1" parent="5I727vghX1C90WXf4kaf-116">
          <mxGeometry y="104" width="180" height="26" as="geometry" />
        </mxCell>
      </root>
    </mxGraphModel>
  </diagram>
</mxfile>
